# xmcd
#
# Track frame offsets:
#       150
#       19950
#       31682
#       47817
#       63832
#       85555
#       106852
#       123615
#       141607
#       159820
#       185507
#       209880
#       237907
#       256695
#       276442
#       292762
#
# Disc length: 4111 seconds
#
# Revision: 1
# Processed by: cddbd v1.5.1PL0 Copyright (c) Steve Scherf et al.
# Submitted via: WaveLab 4.01
#
DISCID=e0100d10
DTITLE=Lindisfarne - The River Sessions [CD1)
DYEAR=2004
DGENRE=
TTITLE0=Start Again
TTITLE1=Love Is A Pain
TTITLE2=Same Way Down
TTITLE3=Only Alone
TTITLE4=Bye Bye Bird
TTITLE5=Lady Eleanor
TTITLE6=Nights
TTITLE7=Make Me Want To Stay
TTITLE8=Meet Me On The Corner
TTITLE9=Run For Home
TTITLE10=Fog On The Tyne
TTITLE11=Clear White Light
TTITLE12=Never Miss The Water
TTITLE13=Warm Feeling
TTITLE14=Cruising To Disaster
TTITLE15=Stormy Weather
EXTD=
EXTT0=
EXTT1=
EXTT2=
EXTT3=
EXTT4=
EXTT5=
EXTT6=
EXTT7=
EXTT8=
EXTT9=
EXTT10=
EXTT11=
EXTT12=
EXTT13=
EXTT14=
EXTT15=
PLAYORDER=
